<mxfile host="65bd71144e">
    <diagram name="第 1 页" id="fYYycVJ1HG9i2rkvl006">
        <mxGraphModel dx="967" dy="883" grid="0" gridSize="10" guides="1" tooltips="1" connect="1" arrows="1" fold="1" page="0" pageScale="1" pageWidth="827" pageHeight="1169" math="0" shadow="0">
            <root>
                <mxCell id="0"/>
                <mxCell id="1" parent="0"/>
                <mxCell id="TcvLhX9hvPtjARJqJQvO-41" value="" style="rounded=1;whiteSpace=wrap;html=1;dashed=1;dashPattern=8 8;" parent="1" vertex="1">
                    <mxGeometry x="37" y="-50.5" width="479" height="460.5" as="geometry"/>
                </mxCell>
                <mxCell id="TcvLhX9hvPtjARJqJQvO-2" value="&lt;b&gt;Subject&lt;/b&gt;" style="swimlane;fontStyle=0;childLayout=stackLayout;horizontal=1;startSize=30;horizontalStack=0;resizeParent=1;resizeParentMax=0;resizeLast=0;collapsible=1;marginBottom=0;whiteSpace=wrap;html=1;fillColor=#ffe6cc;strokeColor=#d79b00;" parent="1" vertex="1">
                    <mxGeometry x="62" y="125" width="140" height="120" as="geometry">
                        <mxRectangle x="62" y="125" width="75" height="30" as="alternateBounds"/>
                    </mxGeometry>
                </mxCell>
                <mxCell id="TcvLhX9hvPtjARJqJQvO-3" value="+Attach(o:Object)" style="text;strokeColor=none;fillColor=none;align=left;verticalAlign=middle;spacingLeft=4;spacingRight=4;overflow=hidden;points=[[0,0.5],[1,0.5]];portConstraint=eastwest;rotatable=0;whiteSpace=wrap;html=1;" parent="TcvLhX9hvPtjARJqJQvO-2" vertex="1">
                    <mxGeometry y="30" width="140" height="30" as="geometry"/>
                </mxCell>
                <mxCell id="TcvLhX9hvPtjARJqJQvO-4" value="+Dettach(o:Object)" style="text;strokeColor=none;fillColor=none;align=left;verticalAlign=middle;spacingLeft=4;spacingRight=4;overflow=hidden;points=[[0,0.5],[1,0.5]];portConstraint=eastwest;rotatable=0;whiteSpace=wrap;html=1;" parent="TcvLhX9hvPtjARJqJQvO-2" vertex="1">
                    <mxGeometry y="60" width="140" height="30" as="geometry"/>
                </mxCell>
                <mxCell id="TcvLhX9hvPtjARJqJQvO-5" value="+Notify()" style="text;strokeColor=none;fillColor=none;align=left;verticalAlign=middle;spacingLeft=4;spacingRight=4;overflow=hidden;points=[[0,0.5],[1,0.5]];portConstraint=eastwest;rotatable=0;whiteSpace=wrap;html=1;" parent="TcvLhX9hvPtjARJqJQvO-2" vertex="1">
                    <mxGeometry y="90" width="140" height="30" as="geometry"/>
                </mxCell>
                <mxCell id="TcvLhX9hvPtjARJqJQvO-7" value="&lt;b&gt;Observer&lt;/b&gt;" style="swimlane;fontStyle=0;childLayout=stackLayout;horizontal=1;startSize=30;horizontalStack=0;resizeParent=1;resizeParentMax=0;resizeLast=0;collapsible=1;marginBottom=0;whiteSpace=wrap;html=1;fillColor=#dae8fc;strokeColor=#6c8ebf;" parent="1" vertex="1">
                    <mxGeometry x="342" y="125" width="140" height="60" as="geometry">
                        <mxRectangle x="342" y="125" width="88" height="30" as="alternateBounds"/>
                    </mxGeometry>
                </mxCell>
                <mxCell id="TcvLhX9hvPtjARJqJQvO-8" value="+Update()" style="text;strokeColor=none;fillColor=none;align=left;verticalAlign=middle;spacingLeft=4;spacingRight=4;overflow=hidden;points=[[0,0.5],[1,0.5]];portConstraint=eastwest;rotatable=0;whiteSpace=wrap;html=1;" parent="TcvLhX9hvPtjARJqJQvO-7" vertex="1">
                    <mxGeometry y="30" width="140" height="30" as="geometry"/>
                </mxCell>
                <mxCell id="TcvLhX9hvPtjARJqJQvO-11" value="&lt;b&gt;ConcrereObserver&lt;/b&gt;" style="swimlane;fontStyle=0;childLayout=stackLayout;horizontal=1;startSize=30;horizontalStack=0;resizeParent=1;resizeParentMax=0;resizeLast=0;collapsible=1;marginBottom=0;whiteSpace=wrap;html=1;" parent="1" vertex="1">
                    <mxGeometry x="342" y="199" width="140" height="37" as="geometry">
                        <mxRectangle x="342" y="205" width="140" height="30" as="alternateBounds"/>
                    </mxGeometry>
                </mxCell>
                <mxCell id="TcvLhX9hvPtjARJqJQvO-13" value="&lt;b&gt;ConcreteSubject&lt;/b&gt;" style="swimlane;fontStyle=0;childLayout=stackLayout;horizontal=1;startSize=30;horizontalStack=0;resizeParent=1;resizeParentMax=0;resizeLast=0;collapsible=1;marginBottom=0;whiteSpace=wrap;html=1;" parent="1" vertex="1">
                    <mxGeometry x="62" y="259" width="140" height="37" as="geometry"/>
                </mxCell>
                <mxCell id="TcvLhX9hvPtjARJqJQvO-16" value="" style="endArrow=classic;html=1;rounded=0;entryX=0.5;entryY=0;entryDx=0;entryDy=0;exitX=0.501;exitY=0.999;exitDx=0;exitDy=0;exitPerimeter=0;" parent="1" source="TcvLhX9hvPtjARJqJQvO-8" target="TcvLhX9hvPtjARJqJQvO-11" edge="1">
                    <mxGeometry width="50" height="50" relative="1" as="geometry">
                        <mxPoint x="411" y="185" as="sourcePoint"/>
                        <mxPoint x="588" y="180" as="targetPoint"/>
                    </mxGeometry>
                </mxCell>
                <mxCell id="TcvLhX9hvPtjARJqJQvO-17" value="" style="endArrow=classic;html=1;rounded=0;entryX=0.5;entryY=0;entryDx=0;entryDy=0;exitX=0.497;exitY=1.007;exitDx=0;exitDy=0;exitPerimeter=0;" parent="1" source="TcvLhX9hvPtjARJqJQvO-5" target="TcvLhX9hvPtjARJqJQvO-13" edge="1">
                    <mxGeometry width="50" height="50" relative="1" as="geometry">
                        <mxPoint x="174" y="245" as="sourcePoint"/>
                        <mxPoint x="174" y="349" as="targetPoint"/>
                    </mxGeometry>
                </mxCell>
                <mxCell id="TcvLhX9hvPtjARJqJQvO-23" value="" style="endArrow=classic;html=1;rounded=0;entryX=-0.008;entryY=0.329;entryDx=0;entryDy=0;entryPerimeter=0;" parent="1" target="TcvLhX9hvPtjARJqJQvO-7" edge="1">
                    <mxGeometry relative="1" as="geometry">
                        <mxPoint x="202" y="143" as="sourcePoint"/>
                        <mxPoint x="341" y="143" as="targetPoint"/>
                    </mxGeometry>
                </mxCell>
                <mxCell id="TcvLhX9hvPtjARJqJQvO-24" value="Label" style="edgeLabel;resizable=0;html=1;align=center;verticalAlign=middle;" parent="TcvLhX9hvPtjARJqJQvO-23" connectable="0" vertex="1">
                    <mxGeometry relative="1" as="geometry"/>
                </mxCell>
                <mxCell id="TcvLhX9hvPtjARJqJQvO-26" value="通知" style="edgeLabel;html=1;align=center;verticalAlign=middle;resizable=0;points=[];" parent="TcvLhX9hvPtjARJqJQvO-23" vertex="1" connectable="0">
                    <mxGeometry x="0.0356" y="1" relative="1" as="geometry">
                        <mxPoint as="offset"/>
                    </mxGeometry>
                </mxCell>
                <mxCell id="TcvLhX9hvPtjARJqJQvO-27" value="&lt;b&gt;Observer&lt;/b&gt;" style="swimlane;fontStyle=0;childLayout=stackLayout;horizontal=1;startSize=30;horizontalStack=0;resizeParent=1;resizeParentMax=0;resizeLast=0;collapsible=1;marginBottom=0;whiteSpace=wrap;html=1;fillColor=#dae8fc;strokeColor=#6c8ebf;" parent="1" vertex="1">
                    <mxGeometry x="342" y="272" width="140" height="60" as="geometry">
                        <mxRectangle x="342" y="125" width="88" height="30" as="alternateBounds"/>
                    </mxGeometry>
                </mxCell>
                <mxCell id="TcvLhX9hvPtjARJqJQvO-28" value="+Update()" style="text;strokeColor=none;fillColor=none;align=left;verticalAlign=middle;spacingLeft=4;spacingRight=4;overflow=hidden;points=[[0,0.5],[1,0.5]];portConstraint=eastwest;rotatable=0;whiteSpace=wrap;html=1;" parent="TcvLhX9hvPtjARJqJQvO-27" vertex="1">
                    <mxGeometry y="30" width="140" height="30" as="geometry"/>
                </mxCell>
                <mxCell id="TcvLhX9hvPtjARJqJQvO-29" value="&lt;b&gt;ConcrereObserver&lt;/b&gt;" style="swimlane;fontStyle=0;childLayout=stackLayout;horizontal=1;startSize=30;horizontalStack=0;resizeParent=1;resizeParentMax=0;resizeLast=0;collapsible=1;marginBottom=0;whiteSpace=wrap;html=1;" parent="1" vertex="1">
                    <mxGeometry x="342" y="346" width="140" height="38" as="geometry">
                        <mxRectangle x="342" y="205" width="140" height="30" as="alternateBounds"/>
                    </mxGeometry>
                </mxCell>
                <mxCell id="TcvLhX9hvPtjARJqJQvO-30" value="" style="endArrow=classic;html=1;rounded=0;entryX=0.5;entryY=0;entryDx=0;entryDy=0;exitX=0.501;exitY=0.999;exitDx=0;exitDy=0;exitPerimeter=0;" parent="1" source="TcvLhX9hvPtjARJqJQvO-28" target="TcvLhX9hvPtjARJqJQvO-29" edge="1">
                    <mxGeometry width="50" height="50" relative="1" as="geometry">
                        <mxPoint x="411" y="332" as="sourcePoint"/>
                        <mxPoint x="588" y="327" as="targetPoint"/>
                    </mxGeometry>
                </mxCell>
                <mxCell id="TcvLhX9hvPtjARJqJQvO-31" value="" style="endArrow=classic;html=1;rounded=0;exitX=1.003;exitY=0.149;exitDx=0;exitDy=0;exitPerimeter=0;entryX=0.005;entryY=0.061;entryDx=0;entryDy=0;entryPerimeter=0;" parent="1" source="TcvLhX9hvPtjARJqJQvO-2" target="TcvLhX9hvPtjARJqJQvO-28" edge="1">
                    <mxGeometry relative="1" as="geometry">
                        <mxPoint x="212" y="153" as="sourcePoint"/>
                        <mxPoint x="351" y="153" as="targetPoint"/>
                    </mxGeometry>
                </mxCell>
                <mxCell id="TcvLhX9hvPtjARJqJQvO-32" value="Label" style="edgeLabel;resizable=0;html=1;align=center;verticalAlign=middle;" parent="TcvLhX9hvPtjARJqJQvO-31" connectable="0" vertex="1">
                    <mxGeometry relative="1" as="geometry"/>
                </mxCell>
                <mxCell id="TcvLhX9hvPtjARJqJQvO-33" value="通知" style="edgeLabel;html=1;align=center;verticalAlign=middle;resizable=0;points=[];" parent="TcvLhX9hvPtjARJqJQvO-31" vertex="1" connectable="0">
                    <mxGeometry x="0.0356" y="1" relative="1" as="geometry">
                        <mxPoint as="offset"/>
                    </mxGeometry>
                </mxCell>
                <mxCell id="TcvLhX9hvPtjARJqJQvO-34" value="&lt;b&gt;Observer&lt;/b&gt;" style="swimlane;fontStyle=0;childLayout=stackLayout;horizontal=1;startSize=30;horizontalStack=0;resizeParent=1;resizeParentMax=0;resizeLast=0;collapsible=1;marginBottom=0;whiteSpace=wrap;html=1;fillColor=#dae8fc;strokeColor=#6c8ebf;" parent="1" vertex="1">
                    <mxGeometry x="342" y="-26" width="140" height="60" as="geometry">
                        <mxRectangle x="342" y="125" width="88" height="30" as="alternateBounds"/>
                    </mxGeometry>
                </mxCell>
                <mxCell id="TcvLhX9hvPtjARJqJQvO-35" value="+Update()" style="text;strokeColor=none;fillColor=none;align=left;verticalAlign=middle;spacingLeft=4;spacingRight=4;overflow=hidden;points=[[0,0.5],[1,0.5]];portConstraint=eastwest;rotatable=0;whiteSpace=wrap;html=1;" parent="TcvLhX9hvPtjARJqJQvO-34" vertex="1">
                    <mxGeometry y="30" width="140" height="30" as="geometry"/>
                </mxCell>
                <mxCell id="TcvLhX9hvPtjARJqJQvO-36" value="&lt;b&gt;ConcrereObserver&lt;/b&gt;" style="swimlane;fontStyle=0;childLayout=stackLayout;horizontal=1;startSize=30;horizontalStack=0;resizeParent=1;resizeParentMax=0;resizeLast=0;collapsible=1;marginBottom=0;whiteSpace=wrap;html=1;" parent="1" vertex="1">
                    <mxGeometry x="342" y="48" width="140" height="38" as="geometry">
                        <mxRectangle x="342" y="205" width="140" height="30" as="alternateBounds"/>
                    </mxGeometry>
                </mxCell>
                <mxCell id="TcvLhX9hvPtjARJqJQvO-37" value="" style="endArrow=classic;html=1;rounded=0;entryX=0.5;entryY=0;entryDx=0;entryDy=0;exitX=0.501;exitY=0.999;exitDx=0;exitDy=0;exitPerimeter=0;" parent="1" source="TcvLhX9hvPtjARJqJQvO-35" target="TcvLhX9hvPtjARJqJQvO-36" edge="1">
                    <mxGeometry width="50" height="50" relative="1" as="geometry">
                        <mxPoint x="411" y="34" as="sourcePoint"/>
                        <mxPoint x="588" y="29" as="targetPoint"/>
                    </mxGeometry>
                </mxCell>
                <mxCell id="TcvLhX9hvPtjARJqJQvO-38" value="" style="endArrow=classic;html=1;rounded=0;exitX=0.994;exitY=0.134;exitDx=0;exitDy=0;exitPerimeter=0;entryX=0.002;entryY=0.002;entryDx=0;entryDy=0;entryPerimeter=0;" parent="1" source="TcvLhX9hvPtjARJqJQvO-2" target="TcvLhX9hvPtjARJqJQvO-35" edge="1">
                    <mxGeometry relative="1" as="geometry">
                        <mxPoint x="212" y="153" as="sourcePoint"/>
                        <mxPoint x="353" y="314" as="targetPoint"/>
                    </mxGeometry>
                </mxCell>
                <mxCell id="TcvLhX9hvPtjARJqJQvO-39" value="Label" style="edgeLabel;resizable=0;html=1;align=center;verticalAlign=middle;" parent="TcvLhX9hvPtjARJqJQvO-38" connectable="0" vertex="1">
                    <mxGeometry relative="1" as="geometry"/>
                </mxCell>
                <mxCell id="TcvLhX9hvPtjARJqJQvO-40" value="通知" style="edgeLabel;html=1;align=center;verticalAlign=middle;resizable=0;points=[];" parent="TcvLhX9hvPtjARJqJQvO-38" vertex="1" connectable="0">
                    <mxGeometry x="0.0356" y="1" relative="1" as="geometry">
                        <mxPoint as="offset"/>
                    </mxGeometry>
                </mxCell>
                <mxCell id="TcvLhX9hvPtjARJqJQvO-42" value="&lt;font style=&quot;font-size: 22px;&quot;&gt;&lt;b&gt;观察者模式&lt;/b&gt;&lt;/font&gt;" style="text;html=1;strokeColor=none;fillColor=none;align=center;verticalAlign=middle;whiteSpace=wrap;rounded=0;" parent="1" vertex="1">
                    <mxGeometry x="57" y="-26" width="127" height="30" as="geometry"/>
                </mxCell>
            </root>
        </mxGraphModel>
    </diagram>
</mxfile>